<svg xmlns="http://www.w3.org/2000/svg" width="874.5" viewBox="0 0 874.5 693" height="693" version="1.0"><defs><clipPath id="a"><path d="M 1 0 L 390 0 L 390 692 L 1 692 Z M 1 0"/></clipPath><clipPath id="b"><path d="M 484.386719 0 L 873.109375 0 L 873.109375 692 L 484.386719 692 Z M 484.386719 0"/></clipPath></defs><g clip-path="url(#a)"><path fill="#946c16" d="M 52.292969 692.398438 L 52.292969 551.929688 C 117.191406 512.839844 159.589844 456.804688 179.496094 383.808594 C 60.773438 383.808594 1.410156 320.761719 1.410156 194.667969 C 1.410156 64.878906 66.671875 0 197.191406 0 C 325.503906 0 389.664062 77.050781 389.664062 231.167969 C 389.664062 470.808594 277.214844 624.550781 52.292969 692.398438"/></g><g clip-path="url(#b)"><path fill="#946c16" d="M 535.738281 692.398438 L 535.738281 551.929688 C 600.636719 512.839844 643.035156 456.804688 662.949219 383.808594 C 544.226562 383.808594 484.855469 320.761719 484.855469 194.667969 C 484.855469 64.878906 550.121094 0 680.644531 0 C 808.957031 0 873.109375 77.050781 873.109375 231.167969 C 873.109375 470.808594 760.664062 624.550781 535.738281 692.398438"/></g></svg>