<svg xmlns="http://www.w3.org/2000/svg" width="874.5" viewBox="0 0 874.5 693" height="693" version="1.0">
<defs>
<clipPath id="a"><path d="M 484 0 L 873.621094 0 L 873.621094 692 L 484 692 Z M 484 0"/></clipPath>
<clipPath id="b"><path d="M 1.4375 0 L 390 0 L 390 692 L 1.4375 692 Z M 1.4375 0"/>
</clipPath></defs>
<g clip-path="url(#a)">
<path fill="#946c16" d="M 822.25 0 L 822.25 140.46875 C 757.355469 179.558594 714.957031 235.589844 695.046875 308.589844 C 813.773438 308.589844 873.136719 371.636719 873.136719 497.726562 C 873.136719 627.519531 807.875 692.398438 677.351562 692.398438 C 549.039062 692.398438 484.882812 615.347656 484.882812 461.226562 C 484.882812 221.585938 597.328125 67.847656 822.25 0"/>
</g>
<g clip-path="url(#b)">
<path fill="#946c16" d="M 338.804688 0 L 338.804688 140.46875 C 273.910156 179.558594 231.511719 235.589844 211.597656 308.589844 C 330.320312 308.589844 389.691406 371.636719 389.691406 497.726562 C 389.691406 627.519531 324.421875 692.398438 193.898438 692.398438 C 65.589844 692.398438 1.4375 615.347656 1.4375 461.226562 C 1.4375 221.585938 113.882812 67.847656 338.804688 0"/>
</g>
</svg>